<?xml version="1.0" encoding="UTF-8" standalone="no"?>
<!-- Created with Inkscape (http://www.inkscape.org/) -->

<svg
   width="45.085632mm"
   height="45.085632mm"
   viewBox="0 0 45.085632 45.085632"
   version="1.1"
   id="svg5"
   inkscape:version="1.1.2 (0a00cf5339, 2022-02-04)"
   sodipodi:docname="chalice-logo-favicon.svg"
   xmlns:inkscape="http://www.inkscape.org/namespaces/inkscape"
   xmlns:sodipodi="http://sodipodi.sourceforge.net/DTD/sodipodi-0.dtd"
   xmlns="http://www.w3.org/2000/svg"
   xmlns:svg="http://www.w3.org/2000/svg">
  <sodipodi:namedview
     id="namedview7"
     pagecolor="#afafaf"
     bordercolor="#666666"
     borderopacity="1.0"
     inkscape:pageshadow="2"
     inkscape:pageopacity="1"
     inkscape:pagecheckerboard="0"
     inkscape:document-units="mm"
     showgrid="false"
     fit-margin-top="0"
     fit-margin-left="0"
     fit-margin-right="0"
     fit-margin-bottom="0"
     inkscape:zoom="6.349676"
     inkscape:cx="76.539338"
     inkscape:cy="77.090548"
     inkscape:window-width="2560"
     inkscape:window-height="1367"
     inkscape:window-x="0"
     inkscape:window-y="0"
     inkscape:window-maximized="1"
     inkscape:current-layer="layer1" />
  <defs
     id="defs2" />
  <g
     inkscape:label="Layer 1"
     inkscape:groupmode="layer"
     id="layer1"
     transform="translate(-81.660515,-119.67729)">
    <circle
       style="fill:#ffffff;fill-rule:evenodd;stroke-width:0.264583"
       id="path29"
       cx="104.20333"
       cy="142.22011"
       r="22.542816" />
    <path
       style="fill:#008000;stroke:none;stroke-width:0.272677px;stroke-linecap:butt;stroke-linejoin:miter;stroke-opacity:1"
       d="m 102.65874,125.16573 c 0,0 -0.56901,3.64483 0.61194,5.69539 1.18095,2.05055 0.65488,4.97071 -0.97697,6.24828 0,0 13.00115,0.0107 22.36283,0.82666 0,0 0.57974,0.12883 0,0.6012 -0.57973,0.47239 -6.89243,4.22994 -22.15884,5.34648 v 11.31562 c 0,0 2.87779,0.19491 4.38018,0.45493 1.57902,0.27328 4.4182,2.55071 -0.21256,3.11248 -1.12353,0.12146 -9.398173,0.12146 -11.007553,-0.0151 -1.609375,-0.13664 -3.674239,-1.15389 -1.761204,-2.58108 0,0 1.032433,-1.0021 5.784644,-0.92619 v -11.11383 c 0,0 -8.380906,0.81988 -11.857773,-1.97377 -3.476867,-2.79363 -3.87162,-5.13179 -3.87162,-5.13179 0,0 -0.151829,-0.57694 0.789507,-0.5314 0.941335,0.0455 5.131794,0.45549 15.182816,0.56177 0,0 -4.3389,-5.81792 2.734603,-11.8896 z"
       id="path78"
       sodipodi:nodetypes="csccsccscscc" />
  </g>
</svg>
